<svg xmlns="http://www.w3.org/2000/svg" width="168" height="46.681" viewBox="0 0 168 46.681">
  <g id="Group_452" data-name="Group 452" transform="translate(-140 -25)">
    <path id="Path_12" data-name="Path 12" d="M2133.07,1208.4H2121.4v-11.67h-11.67v-11.67h11.67l11.67,11.67Z" transform="translate(-1958.06 -1160.057)" fill="#0080c6"/>
    <g id="Group_451" data-name="Group 451">
      <path id="Path_11" data-name="Path 11" d="M2125.2,1220.067l-11.67,11.67h-11.67l-11.67-11.67v-23.34l11.67-11.67v11.67l-11.67,11.67h11.67l11.67-11.67v11.67l-11.67,11.67h11.67l11.67-11.67Z" transform="translate(-1950.187 -1160.057)" fill="#1c1c1c"/>
      <path id="Path_13" data-name="Path 13" d="M2358.24,1222.947a11.5,11.5,0,0,0-.4-3.238,6.072,6.072,0,0,0-2.178-3.261,8.544,8.544,0,0,0-4.714-1.523,17.585,17.585,0,0,0-3.835.177,32.792,32.792,0,0,0-6.144,1.5.384.384,0,0,0-.3.429c.01,1.031,0,2.062,0,3.093,0,.1.01.2.018.352.2-.066.349-.122.5-.17,1.28-.395,2.545-.85,3.846-1.164a13.663,13.663,0,0,1,5.362-.35,4.515,4.515,0,0,1,1.867.663,3.161,3.161,0,0,1,1.223,2.582c.017.192-.127.2-.273.214-1.162.1-2.33.166-3.486.313-1.5.191-2.994.4-4.472.69a13.79,13.79,0,0,0-4.4,1.533c-1.482.878-2.48,2.045-2.267,3.923a3.7,3.7,0,0,0,1.971,3.059,9.065,9.065,0,0,0,4.3.874,12.878,12.878,0,0,0,4.332-.663,7.058,7.058,0,0,0,4.244-3.587c.263-.524.426-1.1.641-1.649.015-.019.265-.249.336.048-.168,1.058-.35,2.115-.521,3.171-.113.7-.213,1.392-.321,2.1a.9.9,0,0,0,.17.04c1.429,0,2.858,0,4.288.005.2,0,.2-.1.2-.253C2358.242,1228.885,2358.245,1225.916,2358.24,1222.947Zm-4.847,2.082a3.9,3.9,0,0,1-1.967,3.014,8.7,8.7,0,0,1-4.767,1.263,5.621,5.621,0,0,1-1.946-.334,1.594,1.594,0,0,1-1.184-1.412,1.318,1.318,0,0,1,.66-1.251,5.155,5.155,0,0,1,2.1-.83c1.113-.2,2.235-.37,3.358-.5s2.26-.2,3.392-.292C2353.421,1224.654,2353.431,1224.649,2353.394,1225.029Z" transform="translate(-2050.246 -1172.074)" fill="#1c1c1c"/>
      <path id="Path_14" data-name="Path 14" d="M2207.42,1204.656h-.344c-1.482,0-2.964.007-4.445-.007a.394.394,0,0,0-.447.307q-2.955,8.166-5.923,16.326c-.057.156-.117.312-.2.525-.063-.167-.106-.271-.142-.378q-2.808-8.244-5.611-16.488c-.071-.208-.148-.295-.383-.292q-2.034.02-4.069,0a.348.348,0,0,0-.393.286q-2.689,7.89-5.391,15.775c-.12.35-.244.7-.386,1.1-.055-.149-.088-.234-.119-.319q-2.969-8.227-5.928-16.455a.494.494,0,0,0-.569-.394c-1.449.019-2.9.009-4.35.009h-.366c.045.137.074.235.11.33q4.209,11.356,8.417,22.713a.376.376,0,0,0,.427.287c1.564-.012,3.13-.006,4.695-.006h.3l5.572-16.343.068.013,5.5,16.33h.294c1.586,0,3.172-.007,4.757.006a.376.376,0,0,0,.42-.3q4.187-11.331,8.383-22.658C2207.344,1204.917,2207.375,1204.8,2207.42,1204.656Z" transform="translate(-1981.678 -1167.949)" fill="#1c1c1c"/>
      <path id="Path_15" data-name="Path 15" d="M2321.586,1211.315h-.4c-1.992,0-3.985-.005-5.977.008a.877.877,0,0,0-.523.193q-4.314,3.663-8.612,7.346c-.073.063-.155.115-.29.216v-14.386h-4.7v23.286h4.718v-.359c0-1.093,0-2.187.006-3.28a.494.494,0,0,1,.136-.344c1.537-1.247,3.084-2.483,4.636-3.728.068.09.132.17.192.253q2.654,3.613,5.3,7.23a.551.551,0,0,0,.514.254c1.627-.01,3.254,0,4.882,0h.369l-8.013-10.44Z" transform="translate(-2035.146 -1167.966)" fill="#1c1c1c"/>
      <path id="Path_16" data-name="Path 16" d="M2247.994,1216.235a11.868,11.868,0,0,0-4.639-1.253,13.1,13.1,0,0,0-7.194,1.27,8,8,0,0,0-3.862,4.094,8.916,8.916,0,0,0-.565,4.8,7.961,7.961,0,0,0,4.473,6.2,12.229,12.229,0,0,0,5.919,1.293,13.22,13.22,0,0,0,3.674-.461,9.224,9.224,0,0,0,4.9-3,8.37,8.37,0,0,0,1.735-6.9A7.94,7.94,0,0,0,2247.994,1216.235Zm-3.137,12.249a7.338,7.338,0,0,1-6.58-.536,4.628,4.628,0,0,1-2.234-4.271,5.08,5.08,0,0,1,4.542-4.987c.49-.087.991-.114,1.487-.168a7.3,7.3,0,0,1,3.574.9,5.031,5.031,0,0,1-.789,9.067Z" transform="translate(-2007.165 -1172.09)" fill="#1c1c1c"/>
      <path id="Path_17" data-name="Path 17" d="M2277.07,1219.611c-.2.56-.311,1.147-.474,1.719-.024.05-.28.527-.363-.04.056-.624.121-1.247.189-1.87q.2-1.83.413-3.66c.026-.232-.021-.331-.291-.328q-2.285.02-4.57,0c-.264,0-.337.087-.337.342q.008,8.016,0,16.031c0,.246.071.322.321.319,1.388-.011,2.775,0,4.163-.006.089,0,.177-.016.268-.024,0-.106.012-.178.012-.251,0-1.781.014-3.563-.006-5.343a10.044,10.044,0,0,1,.326-2.841,5.548,5.548,0,0,1,3.2-3.732,12.531,12.531,0,0,1,4.609-1c.548-.026,1.1-.057,1.644-.086a.405.405,0,0,0,.03-.1c0-1.259,0-2.517,0-3.81a16.085,16.085,0,0,0-4.353.444A6.372,6.372,0,0,0,2277.07,1219.611Z" transform="translate(-2023.283 -1172.09)" fill="#1c1c1c"/>
      <path id="Path_18" data-name="Path 18" d="M2358.376,1203.058l-2.381,2.381-2.381-2.381-2.381,2.381-2.381-2.381,2.381-2.381h4.762Z" transform="translate(-2054.388 -1166.349)" fill="#0080c6"/>
    </g>
  </g>
</svg>
